<svg width="30" height="30" viewBox="0 0 30 30" fill="none" xmlns="http://www.w3.org/2000/svg">
<path d="M7.12549 27.4822C7.12025 27.5113 7.12265 27.5414 7.13241 27.5691C7.14217 27.5968 7.1589 27.621 7.18071 27.6389C7.20252 27.6568 7.22853 27.6678 7.25581 27.6706C7.28308 27.6733 7.31053 27.6678 7.33503 27.6545C8.96108 26.861 10.3315 26.3169 11.3163 25.9677C12.0288 25.7093 13.0513 25.3828 15.0881 24.7208C16.4405 24.316 17.7711 23.8301 19.0736 23.2652C19.5472 23.0567 20.0584 22.8118 20.3602 22.6576C22.8412 21.4651 24.1319 19.3385 25.6658 16.8718C27.0907 14.5683 27.69 12.6004 28.3228 10.4828C29.3079 7.14616 29.8718 3.68077 29.9991 0.180715C30.002 0.151529 29.9976 0.122034 29.9863 0.0953388C29.975 0.0686432 29.9573 0.0457344 29.935 0.029025C29.9127 0.0123155 29.8866 0.00242384 29.8596 0.000391662C29.8325 -0.00164051 29.8054 0.00426204 29.7812 0.0174777C28.5427 0.490185 27.2736 0.863023 25.9843 1.13293C23.763 1.56385 21.5032 1.716 19.2496 1.58637C18.6294 1.58637 10.4488 1.58637 6.41724 6.35654C2.77958 10.6551 3.86082 17.239 4.32181 19.3747C4.33012 19.4066 4.34716 19.4349 4.37069 19.456C4.39421 19.4771 4.4231 19.49 4.45355 19.493C4.48399 19.4959 4.51454 19.4888 4.54115 19.4725C4.56777 19.4563 4.5892 19.4317 4.6026 19.4019C5.23404 17.937 6.08668 16.5961 7.12549 15.4344C9.27449 13.1122 12.0331 11.5636 15.0252 10.9997C15.0557 10.9927 15.0875 10.9963 15.1159 11.0101C15.1443 11.0239 15.168 11.0472 15.1834 11.0765C15.1988 11.1058 15.2052 11.1396 15.2016 11.1731C15.198 11.2066 15.1847 11.238 15.1635 11.2627C11.1589 15.7684 8.37797 21.3799 7.12549 27.4822Z" fill="#4EAE33"/>
<path d="M9.31312 15.8152C9.33646 15.7815 9.34648 15.7392 9.34098 15.6975C9.33548 15.6559 9.3149 15.6183 9.28378 15.593C9.25266 15.5678 9.21354 15.5569 9.17503 15.5629C9.13652 15.5688 9.10177 15.5911 9.07843 15.6248C8.15403 16.7247 7.3393 17.9269 6.64774 19.2115C5.43239 21.4786 5.26057 22.7165 4.13323 24.7071C3.07202 26.5535 1.68839 28.1583 0.0597251 29.4319C0.0371224 29.4494 0.0197245 29.4736 0.00966991 29.5016C-0.000384723 29.5296 -0.00265796 29.5602 0.00312961 29.5896C0.00891717 29.619 0.0225133 29.6459 0.0422469 29.667C0.0619806 29.6881 0.0869917 29.7026 0.114206 29.7085C0.843302 29.8882 1.58768 29.9855 2.33536 29.9987C3.16096 30.0117 3.98515 29.9204 4.79119 29.7267C4.81464 29.7216 4.83652 29.7102 4.85483 29.6936C4.87314 29.6769 4.88729 29.6556 4.89596 29.6315C5.31499 28.5582 5.67464 27.459 5.97301 26.3395C6.11969 25.7999 6.20351 25.4326 6.36276 24.6981C6.36276 24.6981 6.84471 22.5488 7.31827 20.5219C7.74109 18.8456 8.41497 17.2556 9.31312 15.8152Z" fill="#4EAE33"/>
</svg>
